<mxfile host="app.diagrams.net" modified="2024-05-16T16:34:15.208Z" agent="Mozilla/5.0 (Windows NT 10.0; Win64; x64) AppleWebKit/537.36 (KHTML, like Gecko) Chrome/124.0.0.0 Safari/537.36" etag="gLpeprghxLQDHBk69Sy4" version="24.4.0" type="github">
  <diagram name="Page-1" id="e7e014a7-5840-1c2e-5031-d8a46d1fe8dd">
    <mxGraphModel dx="1400" dy="927" grid="1" gridSize="10" guides="1" tooltips="1" connect="1" arrows="1" fold="1" page="1" pageScale="1" pageWidth="1169" pageHeight="826" background="none" math="0" shadow="0">
      <root>
        <mxCell id="0" />
        <mxCell id="1" parent="0" />
        <mxCell id="2" value="commit Stage" style="swimlane;whiteSpace=wrap" parent="1" vertex="1">
          <mxGeometry x="10" y="8" width="280" height="810" as="geometry" />
        </mxCell>
        <mxCell id="5" value="" style="ellipse;shape=startState;fillColor=#000000;strokeColor=#ff0000;" parent="2" vertex="1">
          <mxGeometry x="100" y="40" width="30" height="30" as="geometry" />
        </mxCell>
        <mxCell id="6" value="" style="edgeStyle=elbowEdgeStyle;elbow=horizontal;verticalAlign=bottom;endArrow=open;endSize=8;strokeColor=#FF0000;endFill=1;rounded=0" parent="2" source="5" target="7" edge="1">
          <mxGeometry x="100" y="40" as="geometry">
            <mxPoint x="115" y="110" as="targetPoint" />
          </mxGeometry>
        </mxCell>
        <mxCell id="7" value="commit" style="" parent="2" vertex="1">
          <mxGeometry x="60" y="110" width="110" height="50" as="geometry" />
        </mxCell>
        <mxCell id="8" value="compile " style="" parent="2" vertex="1">
          <mxGeometry x="60" y="220" width="110" height="50" as="geometry" />
        </mxCell>
        <mxCell id="9" value="" style="endArrow=open;strokeColor=#FF0000;endFill=1;rounded=0" parent="2" source="7" target="8" edge="1">
          <mxGeometry relative="1" as="geometry" />
        </mxCell>
        <mxCell id="10" value="unit test" style="" parent="2" vertex="1">
          <mxGeometry x="120" y="320" width="110" height="50" as="geometry" />
        </mxCell>
        <mxCell id="11" value="" style="endArrow=open;strokeColor=#FF0000;endFill=1;rounded=0" parent="2" source="8" target="10" edge="1">
          <mxGeometry relative="1" as="geometry" />
        </mxCell>
        <mxCell id="0xftK_VP6MosYkwbDSfF-54" value=" static analysis checks" style="" vertex="1" parent="2">
          <mxGeometry x="20" y="403" width="140" height="50" as="geometry" />
        </mxCell>
        <mxCell id="0xftK_VP6MosYkwbDSfF-55" value="" style="endArrow=open;strokeColor=#FF0000;endFill=1;rounded=0;exitX=0.5;exitY=1;exitDx=0;exitDy=0;entryX=0.5;entryY=0;entryDx=0;entryDy=0;" edge="1" parent="2" source="8" target="0xftK_VP6MosYkwbDSfF-54">
          <mxGeometry relative="1" as="geometry">
            <mxPoint x="128" y="280" as="sourcePoint" />
            <mxPoint x="142" y="403" as="targetPoint" />
          </mxGeometry>
        </mxCell>
        <mxCell id="0xftK_VP6MosYkwbDSfF-56" value="" style="shape=line;strokeWidth=6;strokeColor=#ff0000;rotation=90" vertex="1" parent="2">
          <mxGeometry x="180" y="490" width="50" height="15" as="geometry" />
        </mxCell>
        <mxCell id="0xftK_VP6MosYkwbDSfF-57" value="" style="endArrow=open;strokeColor=#FF0000;endFill=1;rounded=0;exitX=0.5;exitY=1;exitDx=0;exitDy=0;entryX=0.25;entryY=0.5;entryDx=0;entryDy=0;entryPerimeter=0;" edge="1" parent="2" source="10" target="0xftK_VP6MosYkwbDSfF-56">
          <mxGeometry relative="1" as="geometry">
            <mxPoint x="295" y="170" as="sourcePoint" />
            <mxPoint x="295" y="230" as="targetPoint" />
            <Array as="points">
              <mxPoint x="170" y="470" />
            </Array>
          </mxGeometry>
        </mxCell>
        <mxCell id="0xftK_VP6MosYkwbDSfF-59" value="" style="endArrow=open;strokeColor=#FF0000;endFill=1;rounded=0;exitX=0.43;exitY=0.993;exitDx=0;exitDy=0;exitPerimeter=0;entryX=0.75;entryY=0.5;entryDx=0;entryDy=0;entryPerimeter=0;" edge="1" parent="2" source="0xftK_VP6MosYkwbDSfF-54" target="0xftK_VP6MosYkwbDSfF-56">
          <mxGeometry relative="1" as="geometry">
            <mxPoint x="305" y="180" as="sourcePoint" />
            <mxPoint x="305" y="240" as="targetPoint" />
            <Array as="points">
              <mxPoint x="150" y="500" />
            </Array>
          </mxGeometry>
        </mxCell>
        <mxCell id="0xftK_VP6MosYkwbDSfF-60" value="assembling the application binaries" style="" vertex="1" parent="2">
          <mxGeometry x="50" y="570" width="190" height="50" as="geometry" />
        </mxCell>
        <mxCell id="20" value="" style="endArrow=open;strokeColor=#FF0000;endFill=1;rounded=0;entryX=0.5;entryY=0;entryDx=0;entryDy=0;exitX=0.461;exitY=0.576;exitDx=0;exitDy=0;exitPerimeter=0;" parent="2" source="0xftK_VP6MosYkwbDSfF-56" target="0xftK_VP6MosYkwbDSfF-60" edge="1">
          <mxGeometry relative="1" as="geometry">
            <Array as="points">
              <mxPoint x="250" y="510" />
              <mxPoint x="240" y="540" />
            </Array>
          </mxGeometry>
        </mxCell>
        <mxCell id="0xftK_VP6MosYkwbDSfF-63" value="Succesfull?" style="rhombus;fillColor=#ffffc0;strokeColor=#ff0000;" vertex="1" parent="2">
          <mxGeometry x="80" y="660" width="80" height="40" as="geometry" />
        </mxCell>
        <mxCell id="0xftK_VP6MosYkwbDSfF-66" value="Error info" style="shape=note;whiteSpace=wrap;size=17" vertex="1" parent="2">
          <mxGeometry x="40" y="752" width="100" height="50" as="geometry" />
        </mxCell>
        <mxCell id="0xftK_VP6MosYkwbDSfF-65" value="no" style="edgeStyle=elbowEdgeStyle;elbow=horizontal;align=left;verticalAlign=top;endArrow=open;endSize=8;strokeColor=#FF0000;endFill=1;rounded=0;exitX=0.5;exitY=1;exitDx=0;exitDy=0;entryX=0;entryY=0;entryDx=83;entryDy=0;entryPerimeter=0;" edge="1" parent="2" source="0xftK_VP6MosYkwbDSfF-63" target="0xftK_VP6MosYkwbDSfF-66">
          <mxGeometry x="-1" relative="1" as="geometry">
            <mxPoint x="190" y="732" as="targetPoint" />
            <mxPoint x="491" y="287" as="sourcePoint" />
          </mxGeometry>
        </mxCell>
        <mxCell id="0xftK_VP6MosYkwbDSfF-67" value="" style="endArrow=open;strokeColor=#FF0000;endFill=1;rounded=0;exitX=0.5;exitY=1;exitDx=0;exitDy=0;entryX=0.5;entryY=0;entryDx=0;entryDy=0;" edge="1" parent="2" source="0xftK_VP6MosYkwbDSfF-60" target="0xftK_VP6MosYkwbDSfF-63">
          <mxGeometry relative="1" as="geometry">
            <mxPoint x="375" y="292" as="sourcePoint" />
            <mxPoint x="375" y="347" as="targetPoint" />
          </mxGeometry>
        </mxCell>
        <mxCell id="3" value="acceptance stage" style="swimlane;whiteSpace=wrap" parent="1" vertex="1">
          <mxGeometry x="290" y="7" width="260" height="812" as="geometry" />
        </mxCell>
        <mxCell id="15" value="Install on test" style="" parent="3" vertex="1">
          <mxGeometry x="115" y="463" width="110" height="50" as="geometry" />
        </mxCell>
        <mxCell id="21" value="Test passed?" style="rhombus;fillColor=#ffffc0;strokeColor=#ff0000;" parent="3" vertex="1">
          <mxGeometry x="90" y="582" width="80" height="40" as="geometry" />
        </mxCell>
        <mxCell id="23" value="no" style="edgeStyle=elbowEdgeStyle;elbow=horizontal;align=left;verticalAlign=top;endArrow=open;endSize=8;strokeColor=#FF0000;endFill=1;rounded=0;exitX=0;exitY=0.5;exitDx=0;exitDy=0;" parent="3" source="21" target="31" edge="1">
          <mxGeometry x="-1" relative="1" as="geometry">
            <mxPoint x="112" y="430" as="targetPoint" />
            <Array as="points">
              <mxPoint x="60" y="192" />
            </Array>
          </mxGeometry>
        </mxCell>
        <mxCell id="24" value="" style="endArrow=open;strokeColor=#FF0000;endFill=1;rounded=0;exitX=0.5;exitY=0;exitDx=0;exitDy=0;" parent="3" source="0xftK_VP6MosYkwbDSfF-77" target="21" edge="1">
          <mxGeometry relative="1" as="geometry">
            <mxPoint x="140" y="402" as="sourcePoint" />
          </mxGeometry>
        </mxCell>
        <mxCell id="31" value="Error info" style="shape=note;whiteSpace=wrap;size=17" parent="3" vertex="1">
          <mxGeometry x="20" y="92" width="100" height="50" as="geometry" />
        </mxCell>
        <mxCell id="0xftK_VP6MosYkwbDSfF-77" value="automated acceptance tests" style="" vertex="1" parent="3">
          <mxGeometry x="35" y="722" width="190" height="50" as="geometry" />
        </mxCell>
        <mxCell id="16" value="Smoke test" style="" parent="3" vertex="1">
          <mxGeometry x="105" y="363" width="130" height="37" as="geometry" />
        </mxCell>
        <mxCell id="17" value="" style="endArrow=open;strokeColor=#FF0000;endFill=1;rounded=0" parent="3" source="15" target="16" edge="1">
          <mxGeometry relative="1" as="geometry" />
        </mxCell>
        <mxCell id="22" value="yes" style="edgeStyle=elbowEdgeStyle;elbow=horizontal;align=left;verticalAlign=bottom;endArrow=open;endSize=8;strokeColor=#FF0000;exitX=0.5;exitY=0;endFill=1;rounded=0;entryX=0.5;entryY=1;entryDx=0;entryDy=0;" parent="3" source="21" target="15" edge="1">
          <mxGeometry x="-1" relative="1" as="geometry">
            <mxPoint x="155" y="147.5" as="targetPoint" />
            <Array as="points">
              <mxPoint x="170" y="543" />
            </Array>
          </mxGeometry>
        </mxCell>
        <mxCell id="4" value="automated capacity testing" style="swimlane;whiteSpace=wrap;startSize=23;" parent="1" vertex="1">
          <mxGeometry x="780" y="7" width="190" height="812" as="geometry" />
        </mxCell>
        <mxCell id="33" value="Capacity test" style="" parent="4" vertex="1">
          <mxGeometry x="20" y="52" width="110" height="50" as="geometry" />
        </mxCell>
        <mxCell id="39" value="" style="endArrow=open;strokeColor=#FF0000;endFill=1;rounded=0" parent="4" source="33" target="0xftK_VP6MosYkwbDSfF-87" edge="1">
          <mxGeometry relative="1" as="geometry">
            <mxPoint x="142.65128418478298" y="500.18502331940067" as="targetPoint" />
          </mxGeometry>
        </mxCell>
        <mxCell id="0xftK_VP6MosYkwbDSfF-87" value="Test passed?" style="rhombus;fillColor=#ffffc0;strokeColor=#ff0000;" vertex="1" parent="4">
          <mxGeometry x="50" y="133" width="80" height="40" as="geometry" />
        </mxCell>
        <mxCell id="0xftK_VP6MosYkwbDSfF-89" value="Error info" style="shape=note;whiteSpace=wrap;size=17" vertex="1" parent="4">
          <mxGeometry x="20" y="303" width="100" height="50" as="geometry" />
        </mxCell>
        <mxCell id="0xftK_VP6MosYkwbDSfF-88" value="no" style="edgeStyle=elbowEdgeStyle;elbow=horizontal;align=left;verticalAlign=top;endArrow=open;endSize=8;strokeColor=#FF0000;endFill=1;rounded=0;exitX=0;exitY=0.5;exitDx=0;exitDy=0;" edge="1" parent="4" source="0xftK_VP6MosYkwbDSfF-87" target="0xftK_VP6MosYkwbDSfF-89">
          <mxGeometry x="-1" relative="1" as="geometry">
            <mxPoint x="80" y="452" as="targetPoint" />
            <Array as="points">
              <mxPoint x="30" y="173" />
            </Array>
            <mxPoint x="-120" y="492" as="sourcePoint" />
          </mxGeometry>
        </mxCell>
        <mxCell id="0xftK_VP6MosYkwbDSfF-86" value="" style="shape=line;strokeWidth=6;strokeColor=#ff0000;rotation=90" vertex="1" parent="4">
          <mxGeometry x="140" y="553" width="50" height="23" as="geometry" />
        </mxCell>
        <mxCell id="0xftK_VP6MosYkwbDSfF-91" value="yes" style="edgeStyle=elbowEdgeStyle;elbow=horizontal;align=left;verticalAlign=bottom;endArrow=open;endSize=8;strokeColor=#FF0000;exitX=1;exitY=0.5;endFill=1;rounded=0;exitDx=0;exitDy=0;entryX=0.25;entryY=0.5;entryDx=0;entryDy=0;entryPerimeter=0;" edge="1" parent="4" source="0xftK_VP6MosYkwbDSfF-87" target="0xftK_VP6MosYkwbDSfF-86">
          <mxGeometry x="-1" relative="1" as="geometry">
            <mxPoint x="197.5" y="190.5" as="targetPoint" />
            <Array as="points">
              <mxPoint x="130" y="353" />
            </Array>
            <mxPoint x="42.5" y="243" as="sourcePoint" />
          </mxGeometry>
        </mxCell>
        <mxCell id="0xftK_VP6MosYkwbDSfF-42" value="manual exploratory testing" style="swimlane;whiteSpace=wrap;startSize=23;" vertex="1" parent="1">
          <mxGeometry x="550" y="7" width="230" height="812" as="geometry" />
        </mxCell>
        <mxCell id="0xftK_VP6MosYkwbDSfF-43" value="Install UAT" style="" vertex="1" parent="0xftK_VP6MosYkwbDSfF-42">
          <mxGeometry x="60" y="746" width="110" height="50" as="geometry" />
        </mxCell>
        <mxCell id="0xftK_VP6MosYkwbDSfF-70" value="Test passed?" style="rhombus;fillColor=#ffffc0;strokeColor=#ff0000;" vertex="1" parent="0xftK_VP6MosYkwbDSfF-42">
          <mxGeometry x="100" y="463" width="80" height="40" as="geometry" />
        </mxCell>
        <mxCell id="0xftK_VP6MosYkwbDSfF-71" value="no" style="edgeStyle=elbowEdgeStyle;elbow=horizontal;align=left;verticalAlign=top;endArrow=open;endSize=8;strokeColor=#FF0000;endFill=1;rounded=0;exitX=0;exitY=0.5;exitDx=0;exitDy=0;entryX=0.5;entryY=1;entryDx=0;entryDy=0;entryPerimeter=0;" edge="1" parent="0xftK_VP6MosYkwbDSfF-42" source="0xftK_VP6MosYkwbDSfF-70" target="0xftK_VP6MosYkwbDSfF-75">
          <mxGeometry x="-1" relative="1" as="geometry">
            <mxPoint x="30" y="692" as="targetPoint" />
            <Array as="points">
              <mxPoint x="60" y="473" />
            </Array>
          </mxGeometry>
        </mxCell>
        <mxCell id="0xftK_VP6MosYkwbDSfF-72" value="" style="endArrow=open;strokeColor=#FF0000;endFill=1;rounded=0;exitX=0.5;exitY=1;exitDx=0;exitDy=0;" edge="1" parent="0xftK_VP6MosYkwbDSfF-42" target="0xftK_VP6MosYkwbDSfF-70" source="0xftK_VP6MosYkwbDSfF-82">
          <mxGeometry relative="1" as="geometry">
            <mxPoint x="137.5" y="372" as="sourcePoint" />
          </mxGeometry>
        </mxCell>
        <mxCell id="0xftK_VP6MosYkwbDSfF-73" value="smoke test" style="" vertex="1" parent="0xftK_VP6MosYkwbDSfF-42">
          <mxGeometry x="80" y="646" width="130" height="50" as="geometry" />
        </mxCell>
        <mxCell id="0xftK_VP6MosYkwbDSfF-74" value="" style="endArrow=open;strokeColor=#FF0000;endFill=1;rounded=0;exitX=0.5;exitY=0;exitDx=0;exitDy=0;exitPerimeter=0;" edge="1" parent="0xftK_VP6MosYkwbDSfF-42" source="0xftK_VP6MosYkwbDSfF-43" target="0xftK_VP6MosYkwbDSfF-73">
          <mxGeometry relative="1" as="geometry">
            <mxPoint x="-115" y="710" as="sourcePoint" />
            <mxPoint x="-115" y="642" as="targetPoint" />
            <Array as="points" />
          </mxGeometry>
        </mxCell>
        <mxCell id="0xftK_VP6MosYkwbDSfF-75" value="Error info" style="shape=note;whiteSpace=wrap;size=17" vertex="1" parent="0xftK_VP6MosYkwbDSfF-42">
          <mxGeometry x="10" y="393" width="100" height="50" as="geometry" />
        </mxCell>
        <mxCell id="0xftK_VP6MosYkwbDSfF-82" value="user acceptance testing" style="" vertex="1" parent="0xftK_VP6MosYkwbDSfF-42">
          <mxGeometry x="80" y="563" width="145" height="50" as="geometry" />
        </mxCell>
        <mxCell id="0xftK_VP6MosYkwbDSfF-83" value="" style="endArrow=open;strokeColor=#FF0000;endFill=1;rounded=0;exitX=0.5;exitY=0;exitDx=0;exitDy=0;entryX=0.5;entryY=1;entryDx=0;entryDy=0;" edge="1" parent="0xftK_VP6MosYkwbDSfF-42" source="0xftK_VP6MosYkwbDSfF-73" target="0xftK_VP6MosYkwbDSfF-82">
          <mxGeometry relative="1" as="geometry">
            <mxPoint x="90" y="296" as="sourcePoint" />
            <mxPoint x="153" y="596" as="targetPoint" />
            <Array as="points" />
          </mxGeometry>
        </mxCell>
        <mxCell id="0xftK_VP6MosYkwbDSfF-48" value="production usage" style="swimlane;whiteSpace=wrap;startSize=23;" vertex="1" parent="1">
          <mxGeometry x="970" y="8" width="140" height="812" as="geometry" />
        </mxCell>
        <mxCell id="0xftK_VP6MosYkwbDSfF-49" value="production usage" style="" vertex="1" parent="0xftK_VP6MosYkwbDSfF-48">
          <mxGeometry x="15" y="132" width="110" height="50" as="geometry" />
        </mxCell>
        <mxCell id="0xftK_VP6MosYkwbDSfF-92" value="Aproval?" style="rhombus;fillColor=#ffffc0;strokeColor=#ff0000;" vertex="1" parent="0xftK_VP6MosYkwbDSfF-48">
          <mxGeometry x="30" y="542" width="80" height="40" as="geometry" />
        </mxCell>
        <mxCell id="0xftK_VP6MosYkwbDSfF-96" value="smoke test" style="" vertex="1" parent="0xftK_VP6MosYkwbDSfF-48">
          <mxGeometry x="10" y="272" width="130" height="50" as="geometry" />
        </mxCell>
        <mxCell id="0xftK_VP6MosYkwbDSfF-97" value="" style="endArrow=open;strokeColor=#FF0000;endFill=1;rounded=0;" edge="1" parent="0xftK_VP6MosYkwbDSfF-48" target="0xftK_VP6MosYkwbDSfF-96" source="0xftK_VP6MosYkwbDSfF-99">
          <mxGeometry relative="1" as="geometry">
            <mxPoint x="45" y="315" as="sourcePoint" />
            <mxPoint x="-185" y="211" as="targetPoint" />
            <Array as="points" />
          </mxGeometry>
        </mxCell>
        <mxCell id="0xftK_VP6MosYkwbDSfF-98" value="" style="endArrow=open;strokeColor=#FF0000;endFill=1;rounded=0;exitX=0.5;exitY=0;exitDx=0;exitDy=0;entryX=0.5;entryY=1;entryDx=0;entryDy=0;" edge="1" parent="0xftK_VP6MosYkwbDSfF-48" source="0xftK_VP6MosYkwbDSfF-96" target="0xftK_VP6MosYkwbDSfF-49">
          <mxGeometry relative="1" as="geometry">
            <mxPoint x="20" y="-135" as="sourcePoint" />
            <mxPoint x="83" y="182" as="targetPoint" />
            <Array as="points" />
          </mxGeometry>
        </mxCell>
        <mxCell id="0xftK_VP6MosYkwbDSfF-99" value="Install Prod" style="" vertex="1" parent="0xftK_VP6MosYkwbDSfF-48">
          <mxGeometry x="20" y="382" width="110" height="50" as="geometry" />
        </mxCell>
        <mxCell id="0xftK_VP6MosYkwbDSfF-94" value="yes" style="edgeStyle=elbowEdgeStyle;elbow=horizontal;align=left;verticalAlign=bottom;endArrow=open;endSize=8;strokeColor=#FF0000;exitX=0.5;exitY=0;endFill=1;rounded=0;exitDx=0;exitDy=0;entryX=0.5;entryY=1;entryDx=0;entryDy=0;" edge="1" parent="0xftK_VP6MosYkwbDSfF-48" source="0xftK_VP6MosYkwbDSfF-92" target="0xftK_VP6MosYkwbDSfF-99">
          <mxGeometry x="-1" relative="1" as="geometry">
            <mxPoint x="80" y="462" as="targetPoint" />
            <Array as="points">
              <mxPoint x="75" y="482" />
            </Array>
            <mxPoint x="-230" y="492" as="sourcePoint" />
          </mxGeometry>
        </mxCell>
        <mxCell id="0xftK_VP6MosYkwbDSfF-101" value="" style="ellipse;html=1;shape=endState;fillColor=#000000;strokeColor=#ff0000;" vertex="1" parent="0xftK_VP6MosYkwbDSfF-48">
          <mxGeometry x="55" y="42" width="30" height="30" as="geometry" />
        </mxCell>
        <mxCell id="0xftK_VP6MosYkwbDSfF-102" value="" style="endArrow=open;strokeColor=#FF0000;endFill=1;rounded=0;exitX=0.5;exitY=0;exitDx=0;exitDy=0;entryX=0.5;entryY=1;entryDx=0;entryDy=0;" edge="1" parent="0xftK_VP6MosYkwbDSfF-48" source="0xftK_VP6MosYkwbDSfF-49" target="0xftK_VP6MosYkwbDSfF-101">
          <mxGeometry relative="1" as="geometry">
            <mxPoint x="85" y="282" as="sourcePoint" />
            <mxPoint x="80" y="192" as="targetPoint" />
            <Array as="points" />
          </mxGeometry>
        </mxCell>
        <mxCell id="0xftK_VP6MosYkwbDSfF-64" value="yes" style="edgeStyle=elbowEdgeStyle;elbow=horizontal;align=left;verticalAlign=bottom;endArrow=open;endSize=8;strokeColor=#FF0000;exitX=1;exitY=0.5;endFill=1;rounded=0;exitDx=0;exitDy=0;" edge="1" parent="1" source="0xftK_VP6MosYkwbDSfF-63" target="0xftK_VP6MosYkwbDSfF-77">
          <mxGeometry x="-1" relative="1" as="geometry">
            <mxPoint x="370" y="700" as="targetPoint" />
            <Array as="points">
              <mxPoint x="340" y="700" />
            </Array>
            <mxPoint x="500" y="255" as="sourcePoint" />
          </mxGeometry>
        </mxCell>
        <mxCell id="0xftK_VP6MosYkwbDSfF-80" value="" style="endArrow=open;strokeColor=#FF0000;endFill=1;rounded=0;exitX=1;exitY=0.5;exitDx=0;exitDy=0;entryX=0;entryY=0.75;entryDx=0;entryDy=0;" edge="1" parent="1" source="16" target="0xftK_VP6MosYkwbDSfF-43">
          <mxGeometry relative="1" as="geometry">
            <mxPoint x="470" y="480" as="sourcePoint" />
            <mxPoint x="600" y="389" as="targetPoint" />
          </mxGeometry>
        </mxCell>
        <mxCell id="37" value="" style="edgeStyle=none;strokeColor=#FF0000;endArrow=open;endFill=1;rounded=0" parent="1" target="33" edge="1" source="16">
          <mxGeometry width="100" height="100" relative="1" as="geometry">
            <mxPoint x="750" y="437.5" as="sourcePoint" />
            <mxPoint x="870" y="437.5" as="targetPoint" />
          </mxGeometry>
        </mxCell>
        <mxCell id="0xftK_VP6MosYkwbDSfF-76" value="yes" style="edgeStyle=elbowEdgeStyle;elbow=horizontal;align=left;verticalAlign=bottom;endArrow=open;endSize=8;strokeColor=#FF0000;exitX=1;exitY=0.5;endFill=1;rounded=0;exitDx=0;exitDy=0;entryX=0.75;entryY=0.5;entryDx=0;entryDy=0;entryPerimeter=0;" edge="1" parent="1" source="0xftK_VP6MosYkwbDSfF-70" target="0xftK_VP6MosYkwbDSfF-86">
          <mxGeometry x="-1" relative="1" as="geometry">
            <mxPoint x="690" y="360" as="targetPoint" />
            <Array as="points">
              <mxPoint x="800" y="480" />
            </Array>
            <mxPoint x="435" y="500" as="sourcePoint" />
          </mxGeometry>
        </mxCell>
        <mxCell id="0xftK_VP6MosYkwbDSfF-93" value="" style="edgeStyle=none;strokeColor=#FF0000;endArrow=open;endFill=1;rounded=0;exitX=0.461;exitY=0.474;exitDx=0;exitDy=0;exitPerimeter=0;entryX=0;entryY=0.5;entryDx=0;entryDy=0;" edge="1" parent="1" source="0xftK_VP6MosYkwbDSfF-86" target="0xftK_VP6MosYkwbDSfF-92">
          <mxGeometry width="100" height="100" relative="1" as="geometry">
            <mxPoint x="494" y="380" as="sourcePoint" />
            <mxPoint x="833" y="119" as="targetPoint" />
          </mxGeometry>
        </mxCell>
      </root>
    </mxGraphModel>
  </diagram>
</mxfile>
